<svg xmlns="http://www.w3.org/2000/svg" width="1200" height="360" viewBox="0 0 1200 360" role="img" aria-labelledby="t d">
<title id="t">One File Universe</title><desc id="d">A persistent explorable universe delivered as one deterministic HTML file.</desc>
<defs><linearGradient id="bg" x1="0" y1="0" x2="1" y2="1"><stop stop-color="#071019"/><stop offset="1" stop-color="#0e1825"/></linearGradient><linearGradient id="a" x1="0" y1="0" x2="1" y2="0"><stop stop-color="#76c7ff"/><stop offset="1" stop-color="#8df0d0"/></linearGradient></defs>
<rect width="1200" height="360" rx="28" fill="url(#bg)"/>
<g opacity=".05" stroke="#d8efff"><path d="M0 90H1200M0 180H1200M0 270H1200"/><path d="M150 0V360M300 0V360M450 0V360M600 0V360M750 0V360M900 0V360M1050 0V360"/></g>
<g transform="translate(72 54)">
  <text x="0" y="22" fill="#73889c" font-family="ui-monospace, SFMono-Regular, Menlo, monospace" font-size="14" letter-spacing="4">SELECTED SYSTEM / PROCEDURAL REALITY</text>
  <text x="0" y="98" fill="#f1f7fb" font-family="ui-sans-serif, -apple-system, BlinkMacSystemFont, Segoe UI, sans-serif" font-size="55" font-weight="700" letter-spacing="-2">ONE FILE UNIVERSE</text>
  <text x="0" y="142" fill="#adbdcb" font-family="ui-sans-serif, -apple-system, BlinkMacSystemFont, Segoe UI, sans-serif" font-size="20">A persistent, explorable universe delivered as one deterministic HTML file.</text>
  <rect x="0" y="174" width="128" height="3" rx="1.5" fill="url(#a)"/>
  <text x="0" y="220" fill="#d7e6f1" font-family="ui-monospace, SFMono-Regular, Menlo, monospace" font-size="16">IDENTITY · CAUSALITY · PROVENANCE · REPRODUCIBILITY</text>
  <text x="0" y="256" fill="#778b9b" font-family="ui-sans-serif, -apple-system, BlinkMacSystemFont, Segoe UI, sans-serif" font-size="15">One file. One universe. Verifiable by construction.</text>
</g>
<g transform="translate(885 65)" fill="none">
  <rect x="0" y="0" width="180" height="228" rx="16" stroke="#76c7ff" stroke-opacity=".45" stroke-width="2"/>
  <path d="M35 52H145M35 92H145M35 132H145M35 172H145" stroke="#d7efff" stroke-opacity=".18"/>
  <circle cx="90" cy="52" r="8" fill="#76c7ff"/>
  <circle cx="90" cy="92" r="12" stroke="#8df0d0" stroke-width="2"/>
  <circle cx="90" cy="132" r="18" stroke="#a8b8ff" stroke-width="2"/>
  <circle cx="90" cy="172" r="26" stroke="#f0ca80" stroke-width="2"/>
  <path d="M90 60V80M90 104V114M90 150V146" stroke="#d9e9f4" stroke-opacity=".4"/>
  <text x="90" y="208" text-anchor="middle" fill="#7e93a5" font-family="ui-monospace, SFMono-Regular, Menlo, monospace" font-size="11">ONE ARTIFACT</text>
</g>
</svg>